<?xml version="1.0" encoding="utf-8"?>
<!-- Generator: Adobe Illustrator 22.1.0, SVG Export Plug-In . SVG Version: 6.00 Build 0)  -->
<svg version="1.1" id="Layer_1" xmlns="http://www.w3.org/2000/svg" xmlns:xlink="http://www.w3.org/1999/xlink" x="0px" y="0px"
	 viewBox="0 0 360 360" style="enable-background:new 0 0 360 360;" xml:space="preserve">
<style type="text/css">
	.st0{fill:#FFFFFF;}
</style>
<g>
	<path class="st0" d="M360.2,188.2c0,57.3,0,114.7,0,172.1c-57.4,0-114.7,0-172.1,0c0.2-0.1,0.4-0.3,0.7-0.3
		c3.1-0.3,6.3-0.4,9.4-0.7c7.7-0.7,15.3-2,22.9-3.7c11.1-2.6,21.9-6.2,32.3-10.9c4.4-2,8.7-4.2,13-6.3c-6.2,1.4-12.5,2.3-18.8,2.6
		c-6.2,0.3-12.3,0.3-18.3-1.2c-11.1-2.8-21.4-7.5-31.3-13c-10.6-5.9-20.6-12.8-30-20.5c-4.7-3.8-9.2-7.8-13.1-12.4
		c-2.1-2.4-2.8-5-2-8.1c0.8-3,2.1-5.6,5.6-6.1c1.8-0.3,3.7-0.2,5.5,0c5.1,0.8,9.5,3.3,13.8,5.8c5.7,3.3,11.2,7,16.9,10.2
		c11.9,6.7,24.2,12.7,37.2,17.1c4.6,1.6,9.3,3.1,14.2,2.9c4.5-0.2,8.9-0.4,13.3-1.2c8.9-1.6,16.6-5.6,23.1-12
		c3.8-3.8,6.7-8.2,9.5-12.8c3.5-5.7,6.8-11.5,9.1-17.9c5-13.6,7.5-27.7,9.3-42c0.9-6.7,1.4-13.4,2-20.1c0.4-5.1,0.6-10.3,0.9-15.4
		c0.2-3.2,0.4-6.4,0.5-9.6c0.1-2.1,0-4.3,0-6.6c-0.4,0.3-0.7,0.6-0.9,0.9c-8.2,8.4-17.1,15.9-26.5,22.7
		c-10.2,7.4-21.1,13.7-32.6,18.8c-11.9,5.3-24.1,9.6-37.2,10.4c-3.5,0.2-7,0.2-10.5-0.2c-5.3-0.6-9.2-3.9-12.4-8
		c-6.4-8.1-8.4-17.7-9.1-27.7c-0.3-3.6,0.3-7.2,1.2-10.9c-2.3,2.2-4.4,4.2-6.6,6.3c-8.9,8.7-18.4,16.7-28.3,24.2
		c-9,6.9-18.5,13.2-28.4,18.8c-11.7,6.5-23.9,11.8-36.9,15.2c-9,2.3-18.1,3.4-27.4,3.1c-7.4-0.2-14.6-1.1-21.7-3.4
		c-12.9-4.2-23-12-29.7-23.8c-0.3-0.4-0.5-0.9-0.8-1.3c-0.1,0-0.2,0.1-0.3,0.1c1.2,4.2,2.4,8.4,3.7,12.6
		c5.3,16.2,12.7,31.4,22.3,45.5c8.7,12.8,18.9,24.2,30.6,34.4c9.9,8.6,20.6,16.1,32.2,22.4c15.2,8.3,31.3,14.3,48.3,17.9
		c9.6,2,19.2,3.3,29,3.8c0.3,0,0.5,0.2,0.8,0.3c-57.4,0-114.7,0-172.1,0c0-120,0-240,0-360c57.4,0,114.7,0,172.1,0
		c-1.1,0.1-2.2,0.4-3.3,0.4c-7.6,0.4-15.2,1.4-22.7,2.8c-9.1,1.7-18,4.2-26.7,7.3c-20.9,7.5-39.8,18.5-56.7,33
		c-10.9,9.3-20.5,19.9-28.9,31.6c-0.9,1.3-1.9,2.7-2.8,4c0.4-0.1,0.6-0.3,0.8-0.6c3.9-5.1,8.2-9.8,13.2-13.8
		c7-5.7,14.6-10.3,23.2-13c7.1-2.2,14.3-3.3,21.6-0.8c3.7,1.2,7.4,2.3,10.2,5.3c3.9,4.1,7,8.7,9.3,13.8c3.1,6.7,3.5,13.8,2.8,21
		c-0.7,7.4-3,14.4-6.6,21c-5,9.3-11.6,17.3-19.1,24.6c-6.6,6.4-13.5,12.6-20.5,18.6c-6.9,6-13.9,11.8-21.1,17.4
		c-5.9,4.6-12.1,8.7-18.2,13c-1,0.7-1.3,1.3-1.2,2.5c0.2,1.3,0.2,2.5,0.3,3.8c0.5,5.7,2.1,11,5.3,15.8c5.1,7.5,12.4,11.7,21,13.7
		c10,2.4,20,1.9,29.9-0.1c14.6-3,28.1-8.6,41.1-15.8c17-9.4,32.4-21,47.1-33.6c11.5-9.8,22.3-20.2,33-30.9c3.2-3.2,6.3-6.4,8.6-10.3
		c0.6-1,1.3-1.9,2-2.9c9.2-12.7,19.6-24.4,31.3-34.9c11.6-10.3,24.2-19.2,38.3-25.8c8.1-3.7,16.4-6.6,25.3-7.6
		c1.3-0.1,2.6-0.3,3.9-0.5c0.1-0.2,0.2-0.3,0.3-0.5c-2.9-2.7-5.8-5.4-8.6-8.1c-7.6-7.4-15.9-14-24.7-19.9
		c-15.3-10.2-31.8-17.9-49.4-23.1c-13.7-4-27.6-6.3-41.9-7c-0.2,0-0.5-0.2-0.7-0.3c57.3,0,114.7,0,172.1,0c0,57.4,0,114.7,0,172.1
		c-0.1-0.2-0.3-0.5-0.3-0.7c-0.4-8.2-1.4-16.4-2.8-24.5c-2.4-12.9-6.2-25.3-11.3-37.4c-0.1-0.3-0.3-0.6-0.5-1
		c-0.9,4.6-1.7,9.1-2,13.7c-0.5,8-0.8,15.9-1.1,23.9c-0.2,7.4-0.2,14.9-0.3,22.3c-0.1,10-0.1,20-0.2,30c-0.1,5.9-0.2,11.7-0.5,17.6
		c-0.5,9.5-1.6,19-3.4,28.4c-2.6,14.2-6.9,27.8-13.3,40.7c-0.9,1.8-1.8,3.5-2.8,5.5c0.3-0.2,0.3-0.2,0.4-0.3
		c13.9-18,24.2-37.9,30.6-59.8c4-13.7,6.4-27.8,7-42.1C359.9,188.6,360.1,188.4,360.2,188.2z M211.5,200.7c-0.1,1.8-0.1,1.8,1.7,2.3
		c4,1,8,1.1,12.1,0.6c6.1-0.7,11.9-2.5,17.6-4.8c6.3-2.6,12.4-5.5,18.6-8.2c5.4-2.3,10.7-5,15.7-8.1c10.9-6.6,21.1-14.2,31.2-21.9
		c1.5-1.2,3.3-2.2,3.9-4.2c0.4-1.1,0.8-2.3,1.1-3.4c2.4-9.9,3.1-19.9,3.8-30c0.5-6.8,0.9-13.7,1.2-20.6c0.3-4.8,0.4-9.6,0.7-14.5
		c0-0.8-0.2-1.2-0.9-1.6c-2.7-1.6-5.8-1.9-8.8-1.7c-2.9,0.1-5.7,0.5-8.5,1.2c-6.9,1.5-13.4,4.2-19,8.5c-8.6,6.7-16.7,13.9-24.1,21.9
		c-6.5,6.9-12.8,14-18.2,21.8c-10,14.3-17.9,29.7-24.1,45.9C213.5,189.3,211.9,194.9,211.5,200.7z M26.6,158.5
		c0.3-0.1,0.4-0.2,0.5-0.2c6.1-4.6,12.2-9.1,18.3-13.7c6.8-5.1,13.1-10.7,19.2-16.6c5.2-5.1,10.2-10.4,14.1-16.6
		c4-6.3,6.9-13,6-20.8c-0.4-3.5-1.2-6.8-3.5-9.6c-1.8-2.3-4.1-3.6-7.1-3.1c-1.2,0.2-2.4,0.5-3.6,0.9C65.2,80.5,61,84,57.3,88
		c-6,6.5-10.8,13.8-14.9,21.6c-2.8,5.4-5.6,10.8-7.7,16.4c-3.1,8.1-5,16.6-6.7,25.1C27.5,153.6,27.1,156,26.6,158.5z"/>
	<path d="M188.2,0.2c0.2,0.1,0.5,0.3,0.7,0.3c14.2,0.6,28.2,3,41.9,7c17.7,5.2,34.1,12.9,49.4,23.1c8.8,5.9,17.1,12.5,24.7,19.9
		c2.8,2.8,5.7,5.4,8.6,8.1c-0.1,0.2-0.2,0.3-0.3,0.5c-1.3,0.2-2.6,0.4-3.9,0.5c-8.9,1-17.2,3.8-25.3,7.6
		c-14.1,6.6-26.7,15.4-38.3,25.8c-11.7,10.5-22.1,22.2-31.3,34.9c-0.7,0.9-1.4,1.9-2,2.9c-2.3,3.9-5.4,7.1-8.6,10.3
		c-10.6,10.7-21.5,21.1-33,30.9c-14.7,12.6-30.2,24.1-47.1,33.6c-13,7.2-26.5,12.9-41.1,15.8c-9.9,2-20,2.5-29.9,0.1
		c-8.6-2.1-16-6.2-21-13.7c-3.2-4.8-4.8-10.1-5.3-15.8c-0.1-1.3-0.2-2.5-0.3-3.8c-0.1-1.1,0.3-1.8,1.2-2.5c6.1-4.3,12.3-8.4,18.2-13
		c7.2-5.6,14.2-11.4,21.1-17.4c7-6,13.9-12.2,20.5-18.6c7.5-7.3,14.1-15.3,19.1-24.6c3.5-6.6,5.9-13.5,6.6-21
		c0.7-7.2,0.2-14.3-2.8-21c-2.4-5.1-5.5-9.7-9.3-13.8c-2.8-2.9-6.5-4-10.2-5.3c-7.3-2.4-14.5-1.4-21.6,0.8
		c-8.7,2.7-16.3,7.3-23.2,13c-5,4.1-9.3,8.7-13.2,13.8c-0.2,0.2-0.4,0.5-0.8,0.6c0.9-1.3,1.9-2.7,2.8-4c8.4-11.7,18-22.2,28.9-31.6
		c16.9-14.4,35.7-25.5,56.7-33c8.7-3.1,17.6-5.6,26.7-7.3c7.5-1.4,15-2.4,22.7-2.8c1.1-0.1,2.2-0.3,3.3-0.4
		C177.6,0.2,182.9,0.2,188.2,0.2z"/>
	<path d="M172.3,360.2c-0.3-0.1-0.5-0.3-0.8-0.3c-9.8-0.5-19.4-1.8-29-3.8c-17-3.6-33.1-9.6-48.3-17.9C82.7,332,72,324.5,62,315.9
		c-11.7-10.2-21.8-21.6-30.6-34.4c-9.6-14.1-17.1-29.2-22.3-45.5c-1.3-4.2-2.5-8.4-3.7-12.6c0.1,0,0.2-0.1,0.3-0.1
		c0.3,0.4,0.5,0.9,0.8,1.3c6.7,11.9,16.8,19.6,29.7,23.8c7,2.3,14.3,3.2,21.7,3.4c9.3,0.2,18.4-0.8,27.4-3.1
		c13-3.4,25.2-8.7,36.9-15.2c10-5.6,19.4-11.9,28.4-18.8c9.9-7.6,19.4-15.6,28.3-24.2c2.1-2.1,4.3-4.1,6.6-6.3
		c-0.9,3.7-1.5,7.3-1.2,10.9c0.7,10,2.8,19.6,9.1,27.7c3.2,4.1,7.1,7.4,12.4,8c3.5,0.4,7,0.4,10.5,0.2c13.1-0.8,25.3-5.2,37.2-10.4
		c11.5-5.1,22.4-11.4,32.6-18.8c9.5-6.8,18.4-14.4,26.5-22.7c0.3-0.3,0.6-0.5,0.9-0.9c0,2.3,0.1,4.4,0,6.6c-0.1,3.2-0.3,6.4-0.5,9.6
		c-0.3,5.1-0.5,10.3-0.9,15.4c-0.6,6.7-1.1,13.4-2,20.1c-1.8,14.3-4.3,28.4-9.3,42c-2.3,6.3-5.6,12.1-9.1,17.9
		c-2.8,4.5-5.7,9-9.5,12.8c-6.4,6.4-14.2,10.5-23.1,12c-4.4,0.8-8.9,1-13.3,1.2c-4.9,0.2-9.6-1.4-14.2-2.9
		c-13-4.4-25.3-10.4-37.2-17.1c-5.7-3.2-11.2-6.9-16.9-10.2c-4.3-2.5-8.7-5-13.8-5.8c-1.8-0.3-3.7-0.3-5.5,0
		c-3.4,0.5-4.8,3.1-5.6,6.1c-0.8,3.1-0.1,5.7,2,8.1c4,4.6,8.5,8.6,13.1,12.4c9.4,7.7,19.4,14.6,30,20.5c10,5.5,20.2,10.3,31.3,13
		c6,1.5,12.2,1.5,18.3,1.2c6.3-0.3,12.6-1.3,18.8-2.6c-4.3,2.1-8.6,4.3-13,6.3c-10.4,4.7-21.2,8.3-32.3,10.9
		c-7.5,1.7-15.2,3.1-22.9,3.7c-3.1,0.3-6.3,0.5-9.4,0.7c-0.2,0-0.5,0.2-0.7,0.3C182.9,360.2,177.6,360.2,172.3,360.2z"/>
	<path d="M360.2,188.2c-0.1,0.2-0.3,0.5-0.3,0.7c-0.6,14.3-3,28.4-7,42.1c-6.4,21.9-16.7,41.8-30.6,59.8c0,0.1-0.1,0.1-0.4,0.3
		c1-2,1.9-3.7,2.8-5.5c6.4-12.9,10.7-26.6,13.3-40.7c1.7-9.4,2.8-18.9,3.4-28.4c0.3-5.9,0.4-11.7,0.5-17.6c0.1-10,0.1-20,0.2-30
		c0.1-7.4,0.1-14.9,0.3-22.3c0.2-8,0.5-16,1.1-23.9c0.3-4.6,1.2-9.1,2-13.7c0.2,0.3,0.3,0.6,0.5,1c5.1,12.1,8.9,24.5,11.3,37.4
		c1.5,8.1,2.5,16.2,2.8,24.5c0,0.2,0.2,0.5,0.3,0.7C360.2,177.6,360.2,182.9,360.2,188.2z"/>
	<path d="M211.5,200.7c0.4-5.8,2-11.4,4-16.8c6.2-16.2,14.1-31.6,24.1-45.9c5.4-7.8,11.7-14.8,18.2-21.8c7.4-8,15.5-15.2,24.1-21.9
		c5.7-4.4,12.1-7,19-8.5c2.8-0.6,5.7-1,8.5-1.2c3-0.1,6.1,0.1,8.8,1.7c0.7,0.4,0.9,0.9,0.9,1.6c-0.2,4.8-0.4,9.6-0.7,14.5
		c-0.4,6.9-0.8,13.7-1.2,20.6c-0.7,10.1-1.5,20.1-3.8,30c-0.3,1.2-0.7,2.3-1.1,3.4c-0.6,2-2.4,3-3.9,4.2
		c-10.1,7.8-20.3,15.3-31.2,21.9c-5,3.1-10.3,5.7-15.7,8.1c-6.2,2.7-12.3,5.6-18.6,8.2c-5.6,2.3-11.5,4.1-17.6,4.8
		c-4.1,0.5-8.1,0.4-12.1-0.6C211.4,202.5,211.4,202.5,211.5,200.7z"/>
	<path d="M26.6,158.5c0.5-2.5,0.9-4.9,1.4-7.4c1.7-8.5,3.6-17,6.7-25.1c2.2-5.6,4.9-11.1,7.7-16.4c4.1-7.8,8.9-15.1,14.9-21.6
		c3.7-4,7.9-7.5,13.2-9.3c1.2-0.4,2.4-0.7,3.6-0.9c3-0.5,5.3,0.8,7.1,3.1c2.3,2.8,3.1,6.2,3.5,9.6c0.9,7.8-2,14.5-6,20.8
		c-3.9,6.2-8.9,11.5-14.1,16.6c-6.1,5.9-12.4,11.5-19.2,16.6c-6.1,4.6-12.2,9.2-18.3,13.7C27,158.3,26.9,158.4,26.6,158.5z"/>
</g>
</svg>
