<svg id="Layer_1" data-name="Layer 1" xmlns="http://www.w3.org/2000/svg" viewBox="0 0 360 360"><defs><style>.cls-1{fill:#fbfbfb;}</style></defs><title>logo22</title><path class="cls-1" d="M188.16.24a2.21,2.21,0,0,0,.68.29,179.49,179.49,0,0,1,116,50c2.84,2.75,5.74,5.43,8.62,8.15l-.34.52c-1.32.17-2.63.36-3.95.51a81,81,0,0,0-25.29,7.57C269.71,73.81,257.14,82.68,245.56,93a218.62,218.62,0,0,0-31.33,34.9c-.68.93-1.38,1.86-2,2.86a52.57,52.57,0,0,1-8.55,10.28c-10.64,10.66-21.48,21.12-33,30.89-14.73,12.56-30.16,24.15-47.13,33.56-12.95,7.19-26.52,12.87-41.09,15.83-9.94,2-20,2.48-29.93.1-8.62-2.06-16-6.21-21-13.72a33.22,33.22,0,0,1-5.34-15.8c-.12-1.27-.17-2.55-.32-3.81a2.35,2.35,0,0,1,1.21-2.46c6.12-4.27,12.34-8.42,18.22-13,7.19-5.59,14.19-11.44,21.07-17.4s13.86-12.19,20.5-18.59A100,100,0,0,0,106,112.08a55.06,55.06,0,0,0,6.57-21c.68-7.2.24-14.29-2.84-21a51.24,51.24,0,0,0-9.34-13.82c-2.76-2.91-6.53-4-10.21-5.25-7.31-2.41-14.48-1.37-21.61.84a69.41,69.41,0,0,0-23.25,13A81.66,81.66,0,0,0,32.11,78.74a1.31,1.31,0,0,1-.82.57c.94-1.33,1.85-2.67,2.8-4a180.42,180.42,0,0,1,85.59-64.53,177.19,177.19,0,0,1,26.68-7.28A174.36,174.36,0,0,1,169,.67c1.11-.07,2.21-.28,3.31-.43Z"/><path class="cls-1" d="M172.32,360.24a2.87,2.87,0,0,0-.8-.29,181.83,181.83,0,0,1-29-3.79,179,179,0,0,1-80.45-40.31,179.87,179.87,0,0,1-30.55-34.4A177.26,177.26,0,0,1,9.16,236c-1.34-4.16-2.49-8.38-3.73-12.57l.3-.14c.26.44.53.87.78,1.31,6.74,11.88,16.81,19.64,29.71,23.85a75.71,75.71,0,0,0,21.66,3.39,98.32,98.32,0,0,0,27.38-3.12,156.35,156.35,0,0,0,36.92-15.21,238,238,0,0,0,28.45-18.8,315,315,0,0,0,28.27-24.24c2.11-2.06,4.26-4.09,6.56-6.29a35.08,35.08,0,0,0-1.2,10.87c.73,10,2.77,19.58,9.15,27.71,3.22,4.1,7.1,7.38,12.44,8a57.65,57.65,0,0,0,10.51.19c13.12-.84,25.31-5.16,37.19-10.42a181.21,181.21,0,0,0,32.59-18.8A202.52,202.52,0,0,0,312.68,179c.27-.27.56-.52.92-.86,0,2.28.06,4.42,0,6.56-.1,3.19-.28,6.38-.46,9.57-.29,5.14-.51,10.29-.94,15.42-.55,6.71-1.12,13.44-2,20.12-1.82,14.29-4.35,28.43-9.3,42a99.37,99.37,0,0,1-9.11,17.85,66.47,66.47,0,0,1-9.47,12.77,42.52,42.52,0,0,1-23,12A100.67,100.67,0,0,1,246,315.73c-4.94.21-9.6-1.37-14.2-2.94a222.7,222.7,0,0,1-37.2-17.1c-5.73-3.23-11.23-6.86-16.9-10.19-4.34-2.54-8.75-5-13.81-5.8a18.92,18.92,0,0,0-5.47,0c-3.43.49-4.77,3.08-5.57,6.11a8.29,8.29,0,0,0,2,8.08,100.76,100.76,0,0,0,13.14,12.41,207.21,207.21,0,0,0,30,20.49c10,5.51,20.23,10.27,31.34,13,6,1.51,12.18,1.5,18.34,1.17a119.19,119.19,0,0,0,18.82-2.62c-4.33,2.1-8.6,4.29-13,6.27a173.81,173.81,0,0,1-32.32,10.88,165.43,165.43,0,0,1-22.87,3.74c-3.14.27-6.29.47-9.43.72a2.53,2.53,0,0,0-.68.3Z"/><path class="cls-1" d="M360.24,188.16a2.25,2.25,0,0,0-.3.68,176.23,176.23,0,0,1-7,42.1,179.68,179.68,0,0,1-30.64,59.77,4.21,4.21,0,0,1-.4.25c1-1.95,1.92-3.71,2.8-5.49a154.35,154.35,0,0,0,13.28-40.74,227.53,227.53,0,0,0,3.38-28.37c.33-5.86.42-11.74.49-17.61.12-10,.11-20,.19-30,.05-7.44.05-14.87.26-22.3.23-8,.52-16,1.07-23.93a121.84,121.84,0,0,1,2-13.7c.15.32.32.64.45,1a178.21,178.21,0,0,1,11.28,37.38,181.25,181.25,0,0,1,2.84,24.46,2.25,2.25,0,0,0,.3.68Z"/><path class="cls-1" d="M211.48,200.66a59,59,0,0,1,4-16.77A214.07,214.07,0,0,1,239.62,138a220.55,220.55,0,0,1,42.31-43.64,47.26,47.26,0,0,1,19-8.54,52,52,0,0,1,8.51-1.17,15.48,15.48,0,0,1,8.8,1.74,1.57,1.57,0,0,1,.87,1.64c-.25,4.82-.43,9.65-.69,14.47-.38,6.86-.76,13.71-1.25,20.56-.73,10.06-1.46,20.13-3.84,30-.27,1.16-.71,2.27-1.06,3.41-.63,2-2.42,3-3.94,4.2a350.46,350.46,0,0,1-31.23,21.95,121.82,121.82,0,0,1-15.71,8.06c-6.23,2.67-12.34,5.58-18.6,8.16a66.36,66.36,0,0,1-17.57,4.8,32.49,32.49,0,0,1-12.11-.63C211.38,202.49,211.38,202.49,211.48,200.66Z"/><path class="cls-1" d="M26.6,158.5c.46-2.53.88-4.95,1.36-7.35a154.62,154.62,0,0,1,6.73-25.1,157.2,157.2,0,0,1,7.71-16.42A99.7,99.7,0,0,1,57.31,88c3.72-4,7.86-7.5,13.17-9.27a23.07,23.07,0,0,1,3.58-.87c3-.52,5.27.78,7.09,3,2.26,2.82,3.08,6.17,3.5,9.65.93,7.77-2,14.47-6,20.8s-8.9,11.48-14.12,16.56a202,202,0,0,1-19.19,16.61c-6.1,4.6-12.21,9.16-18.31,13.74A4.2,4.2,0,0,1,26.6,158.5Z"/></svg>